# Rhino

mtllib Blog.mtl
usemtl blog_0005_图层-7
v -224.40713500976563 -68.273719787597656 -14.826686859130859
v -224.40713500976563 -46.161746978759766 -14.826686859130859
v -224.40713500976563 -68.273719787597656 -38.996456146240234
v -224.40713500976563 -46.161746978759766 -38.996456146240234
vt 0 0
vt 0 1
vt 1 0
vt 1 1
vn 1 0 0
vn 1 0 0
vn 1 0 0
vn 1 0 0
f 4/4/4 2/2/2 1/1/1 3/3/3
usemtl blog_0004_图层-6
v -224.40713500976563 -44.437187194824219 -14.826686859130859
v -224.40713500976563 72.296066284179688 -14.826686859130859
v -224.40713500976563 -44.437187194824219 -38.996456146240234
v -224.40713500976563 72.296066284179688 -38.996456146240234
vt 0 0
vt 0 1
vt 1 0
vt 1 1
vn 1 0 0
vn 1 0 0
vn 1 0 0
vn 1 0 0
f 8/8/8 6/6/6 5/5/5 7/7/7
usemtl blog_0003_图层-4
v -224.40713500976563 -60.891780853271484 11.868988037109375
v -224.40713500976563 68.300498962402344 11.868988037109375
v -224.40713500976563 -60.891780853271484 -12.30078125
v -224.40713500976563 68.300498962402344 -12.30078125
vt 0 0
vt 0 1
vt 1 0
vt 1 1
vn 1 0 0
vn 1 0 0
vn 1 0 0
vn 1 0 0
f 12/12/12 10/10/10 9/9/9 11/11/11
usemtl blog_0002_图层-5
v -224.40713500976563 -16.704635620117188 38.506629943847656
v -224.40713500976563 5.5944080352783203 38.506629943847656
v -224.40713500976563 -16.704635620117188 14.336859703063965
v -224.40713500976563 5.5944080352783203 14.336859703063965
vt 0 0
vt 0 1
vt 1 0
vt 1 1
vn 1 0 0
vn 1 0 0
vn 1 0 0
vn 1 0 0
f 16/16/16 14/14/14 13/13/13 15/15/15
usemtl blog_0001_图层-3
v -224.40713500976563 6.2421159744262695 38.506629943847656
v -224.40713500976563 29.925497055053711 38.506629943847656
v -224.40713500976563 6.2421159744262695 14.336859703063965
v -224.40713500976563 29.925497055053711 14.336859703063965
vt 0 0
vt 0 1
vt 1 0
vt 1 1
vn 1 0 0
vn 1 0 0
vn 1 0 0
vn 1 0 0
f 20/20/20 18/18/18 17/17/17 19/19/19
usemtl blog_0000_图层-2
v -224.40713500976563 30.718650817871094 38.506629943847656
v -224.40713500976563 38.388626098632813 38.506629943847656
v -224.40713500976563 30.718650817871094 14.336859703063965
v -224.40713500976563 38.388626098632813 14.336859703063965
vt 0 0
vt 0 1
vt 1 0
vt 1 1
vn 1 0 0
vn 1 0 0
vn 1 0 0
vn 1 0 0
f 24/24/24 22/22/22 21/21/21 23/23/23
